<mxfile host="Electron" modified="2024-04-27T10:02:34.040Z" agent="Mozilla/5.0 (Windows NT 10.0; Win64; x64) AppleWebKit/537.36 (KHTML, like Gecko) draw.io/24.1.0 Chrome/120.0.6099.109 Electron/28.1.0 Safari/537.36" etag="eBin0P86OAg5CaQccY3y" version="24.1.0" type="device">
  <diagram name="第 1 页" id="2_CpTbe3YEEQDSozz7Hz">
    <mxGraphModel dx="842" dy="568" grid="1" gridSize="10" guides="1" tooltips="1" connect="1" arrows="1" fold="1" page="1" pageScale="1" pageWidth="3300" pageHeight="2339" math="0" shadow="0">
      <root>
        <mxCell id="0" />
        <mxCell id="1" parent="0" />
        <mxCell id="LTfVYK72e8TD1yp82YDs-3" value="" style="group" parent="1" vertex="1" connectable="0">
          <mxGeometry x="530" y="260" width="110" height="60" as="geometry" />
        </mxCell>
        <mxCell id="LTfVYK72e8TD1yp82YDs-1" value="ready &amp;lt;= &#39;1&#39;" style="rounded=0;whiteSpace=wrap;html=1;movable=1;resizable=1;rotatable=1;deletable=1;editable=1;locked=0;connectable=1;" parent="LTfVYK72e8TD1yp82YDs-3" vertex="1">
          <mxGeometry x="30" y="30" width="80" height="30" as="geometry" />
        </mxCell>
        <mxCell id="LTfVYK72e8TD1yp82YDs-2" value="idle" style="ellipse;whiteSpace=wrap;html=1;aspect=fixed;movable=1;resizable=1;rotatable=1;deletable=1;editable=1;locked=0;connectable=1;" parent="LTfVYK72e8TD1yp82YDs-3" vertex="1">
          <mxGeometry width="30" height="30" as="geometry" />
        </mxCell>
        <mxCell id="LTfVYK72e8TD1yp82YDs-11" style="edgeStyle=orthogonalEdgeStyle;rounded=0;orthogonalLoop=1;jettySize=auto;html=1;exitX=0;exitY=0.5;exitDx=0;exitDy=0;entryX=0.5;entryY=0;entryDx=0;entryDy=0;" parent="1" source="LTfVYK72e8TD1yp82YDs-4" target="LTfVYK72e8TD1yp82YDs-1" edge="1">
          <mxGeometry relative="1" as="geometry">
            <Array as="points">
              <mxPoint x="490" y="370" />
              <mxPoint x="490" y="230" />
              <mxPoint x="600" y="230" />
            </Array>
          </mxGeometry>
        </mxCell>
        <mxCell id="LTfVYK72e8TD1yp82YDs-12" value="no" style="edgeLabel;html=1;align=center;verticalAlign=middle;resizable=0;points=[];" parent="LTfVYK72e8TD1yp82YDs-11" vertex="1" connectable="0">
          <mxGeometry x="-0.8892" relative="1" as="geometry">
            <mxPoint as="offset" />
          </mxGeometry>
        </mxCell>
        <mxCell id="rDlZttwklfcMdlknaQjT-5" value="" style="edgeStyle=orthogonalEdgeStyle;rounded=0;orthogonalLoop=1;jettySize=auto;html=1;" parent="1" source="LTfVYK72e8TD1yp82YDs-4" target="rDlZttwklfcMdlknaQjT-3" edge="1">
          <mxGeometry relative="1" as="geometry" />
        </mxCell>
        <mxCell id="rDlZttwklfcMdlknaQjT-6" value="yes" style="edgeLabel;html=1;align=center;verticalAlign=middle;resizable=0;points=[];" parent="rDlZttwklfcMdlknaQjT-5" vertex="1" connectable="0">
          <mxGeometry x="-0.1213" y="-1" relative="1" as="geometry">
            <mxPoint as="offset" />
          </mxGeometry>
        </mxCell>
        <mxCell id="LTfVYK72e8TD1yp82YDs-4" value="start=&#39;1&#39;" style="rhombus;whiteSpace=wrap;html=1;" parent="1" vertex="1">
          <mxGeometry x="560" y="350" width="80" height="40" as="geometry" />
        </mxCell>
        <mxCell id="LTfVYK72e8TD1yp82YDs-5" value="" style="edgeStyle=orthogonalEdgeStyle;rounded=0;orthogonalLoop=1;jettySize=auto;html=1;" parent="1" source="LTfVYK72e8TD1yp82YDs-1" target="LTfVYK72e8TD1yp82YDs-4" edge="1">
          <mxGeometry relative="1" as="geometry" />
        </mxCell>
        <mxCell id="rDlZttwklfcMdlknaQjT-15" style="edgeStyle=orthogonalEdgeStyle;rounded=0;orthogonalLoop=1;jettySize=auto;html=1;entryX=0.5;entryY=0;entryDx=0;entryDy=0;" parent="1" source="rDlZttwklfcMdlknaQjT-1" target="rDlZttwklfcMdlknaQjT-14" edge="1">
          <mxGeometry relative="1" as="geometry" />
        </mxCell>
        <mxCell id="rDlZttwklfcMdlknaQjT-1" value="&lt;div&gt;ni &amp;lt;- n&lt;/div&gt;" style="ellipse;whiteSpace=wrap;html=1;" parent="1" vertex="1">
          <mxGeometry x="567.5" y="590" width="65" height="40" as="geometry" />
        </mxCell>
        <mxCell id="rDlZttwklfcMdlknaQjT-2" value="" style="group" parent="1" vertex="1" connectable="0">
          <mxGeometry x="530" y="410" width="110" height="80" as="geometry" />
        </mxCell>
        <mxCell id="rDlZttwklfcMdlknaQjT-3" value="n1 &amp;lt;- 1&lt;div&gt;n2 &amp;lt;- 0&lt;/div&gt;" style="rounded=0;whiteSpace=wrap;html=1;movable=1;resizable=1;rotatable=1;deletable=1;editable=1;locked=0;connectable=1;" parent="rDlZttwklfcMdlknaQjT-2" vertex="1">
          <mxGeometry x="30" y="30" width="80" height="50" as="geometry" />
        </mxCell>
        <mxCell id="rDlZttwklfcMdlknaQjT-4" value="load" style="ellipse;whiteSpace=wrap;html=1;aspect=fixed;movable=1;resizable=1;rotatable=1;deletable=1;editable=1;locked=0;connectable=1;" parent="rDlZttwklfcMdlknaQjT-2" vertex="1">
          <mxGeometry width="30" height="30" as="geometry" />
        </mxCell>
        <mxCell id="rDlZttwklfcMdlknaQjT-11" value="" style="edgeStyle=orthogonalEdgeStyle;rounded=0;orthogonalLoop=1;jettySize=auto;html=1;" parent="1" source="rDlZttwklfcMdlknaQjT-7" target="rDlZttwklfcMdlknaQjT-1" edge="1">
          <mxGeometry relative="1" as="geometry" />
        </mxCell>
        <mxCell id="rDlZttwklfcMdlknaQjT-13" value="yes" style="edgeLabel;html=1;align=center;verticalAlign=middle;resizable=0;points=[];" parent="rDlZttwklfcMdlknaQjT-11" vertex="1" connectable="0">
          <mxGeometry x="-0.6229" y="-1" relative="1" as="geometry">
            <mxPoint as="offset" />
          </mxGeometry>
        </mxCell>
        <mxCell id="rDlZttwklfcMdlknaQjT-7" value="start=&#39;0&#39;" style="rhombus;whiteSpace=wrap;html=1;" parent="1" vertex="1">
          <mxGeometry x="560" y="520" width="80" height="40" as="geometry" />
        </mxCell>
        <mxCell id="rDlZttwklfcMdlknaQjT-8" value="" style="edgeStyle=orthogonalEdgeStyle;rounded=0;orthogonalLoop=1;jettySize=auto;html=1;" parent="1" source="rDlZttwklfcMdlknaQjT-3" target="rDlZttwklfcMdlknaQjT-7" edge="1">
          <mxGeometry relative="1" as="geometry" />
        </mxCell>
        <mxCell id="rDlZttwklfcMdlknaQjT-9" style="edgeStyle=orthogonalEdgeStyle;rounded=0;orthogonalLoop=1;jettySize=auto;html=1;entryX=0.991;entryY=0.379;entryDx=0;entryDy=0;entryPerimeter=0;" parent="1" source="rDlZttwklfcMdlknaQjT-7" target="rDlZttwklfcMdlknaQjT-3" edge="1">
          <mxGeometry relative="1" as="geometry">
            <Array as="points">
              <mxPoint x="660" y="540" />
              <mxPoint x="660" y="459" />
            </Array>
          </mxGeometry>
        </mxCell>
        <mxCell id="rDlZttwklfcMdlknaQjT-10" value="no" style="edgeLabel;html=1;align=center;verticalAlign=middle;resizable=0;points=[];" parent="rDlZttwklfcMdlknaQjT-9" vertex="1" connectable="0">
          <mxGeometry x="-0.0699" y="-1" relative="1" as="geometry">
            <mxPoint as="offset" />
          </mxGeometry>
        </mxCell>
        <mxCell id="rDlZttwklfcMdlknaQjT-20" style="edgeStyle=orthogonalEdgeStyle;rounded=0;orthogonalLoop=1;jettySize=auto;html=1;exitX=1;exitY=0.5;exitDx=0;exitDy=0;entryX=1;entryY=0.5;entryDx=0;entryDy=0;" parent="1" source="rDlZttwklfcMdlknaQjT-14" target="rDlZttwklfcMdlknaQjT-19" edge="1">
          <mxGeometry relative="1" as="geometry" />
        </mxCell>
        <mxCell id="rDlZttwklfcMdlknaQjT-22" value="yes" style="edgeLabel;html=1;align=center;verticalAlign=middle;resizable=0;points=[];" parent="rDlZttwklfcMdlknaQjT-20" vertex="1" connectable="0">
          <mxGeometry x="-0.1186" y="3" relative="1" as="geometry">
            <mxPoint as="offset" />
          </mxGeometry>
        </mxCell>
        <mxCell id="rDlZttwklfcMdlknaQjT-24" style="edgeStyle=orthogonalEdgeStyle;rounded=0;orthogonalLoop=1;jettySize=auto;html=1;exitX=0.5;exitY=1;exitDx=0;exitDy=0;entryX=0.5;entryY=0;entryDx=0;entryDy=0;" parent="1" source="rDlZttwklfcMdlknaQjT-14" target="rDlZttwklfcMdlknaQjT-23" edge="1">
          <mxGeometry relative="1" as="geometry" />
        </mxCell>
        <mxCell id="rDlZttwklfcMdlknaQjT-25" value="no" style="edgeLabel;html=1;align=center;verticalAlign=middle;resizable=0;points=[];" parent="rDlZttwklfcMdlknaQjT-24" vertex="1" connectable="0">
          <mxGeometry x="-0.2127" y="2" relative="1" as="geometry">
            <mxPoint x="-2" as="offset" />
          </mxGeometry>
        </mxCell>
        <mxCell id="rDlZttwklfcMdlknaQjT-14" value="n = 0" style="rhombus;whiteSpace=wrap;html=1;" parent="1" vertex="1">
          <mxGeometry x="730" y="360" width="80" height="40" as="geometry" />
        </mxCell>
        <mxCell id="rDlZttwklfcMdlknaQjT-47" style="edgeStyle=orthogonalEdgeStyle;rounded=0;orthogonalLoop=1;jettySize=auto;html=1;" parent="1" source="rDlZttwklfcMdlknaQjT-48" target="LTfVYK72e8TD1yp82YDs-1" edge="1">
          <mxGeometry relative="1" as="geometry" />
        </mxCell>
        <mxCell id="rDlZttwklfcMdlknaQjT-19" value="&lt;div&gt;fib &amp;lt;- 0&lt;/div&gt;" style="ellipse;whiteSpace=wrap;html=1;" parent="1" vertex="1">
          <mxGeometry x="737.5" y="285" width="65" height="40" as="geometry" />
        </mxCell>
        <mxCell id="rDlZttwklfcMdlknaQjT-27" style="edgeStyle=orthogonalEdgeStyle;rounded=0;orthogonalLoop=1;jettySize=auto;html=1;exitX=1;exitY=0.5;exitDx=0;exitDy=0;entryX=1;entryY=0.5;entryDx=0;entryDy=0;" parent="1" source="rDlZttwklfcMdlknaQjT-23" target="rDlZttwklfcMdlknaQjT-26" edge="1">
          <mxGeometry relative="1" as="geometry">
            <Array as="points">
              <mxPoint x="860" y="450" />
              <mxPoint x="860" y="250" />
            </Array>
          </mxGeometry>
        </mxCell>
        <mxCell id="rDlZttwklfcMdlknaQjT-28" value="yes" style="edgeLabel;html=1;align=center;verticalAlign=middle;resizable=0;points=[];" parent="rDlZttwklfcMdlknaQjT-27" vertex="1" connectable="0">
          <mxGeometry x="0.0011" relative="1" as="geometry">
            <mxPoint as="offset" />
          </mxGeometry>
        </mxCell>
        <mxCell id="rDlZttwklfcMdlknaQjT-33" style="edgeStyle=orthogonalEdgeStyle;rounded=0;orthogonalLoop=1;jettySize=auto;html=1;exitX=0.5;exitY=1;exitDx=0;exitDy=0;" parent="1" source="rDlZttwklfcMdlknaQjT-23" target="rDlZttwklfcMdlknaQjT-31" edge="1">
          <mxGeometry relative="1" as="geometry" />
        </mxCell>
        <mxCell id="rDlZttwklfcMdlknaQjT-34" value="no" style="edgeLabel;html=1;align=center;verticalAlign=middle;resizable=0;points=[];" parent="rDlZttwklfcMdlknaQjT-33" vertex="1" connectable="0">
          <mxGeometry x="-0.3667" relative="1" as="geometry">
            <mxPoint as="offset" />
          </mxGeometry>
        </mxCell>
        <mxCell id="rDlZttwklfcMdlknaQjT-23" value="n = 1" style="rhombus;whiteSpace=wrap;html=1;" parent="1" vertex="1">
          <mxGeometry x="730" y="430" width="80" height="40" as="geometry" />
        </mxCell>
        <mxCell id="rDlZttwklfcMdlknaQjT-26" value="&lt;div&gt;fib &amp;lt;- 1&lt;/div&gt;" style="ellipse;whiteSpace=wrap;html=1;" parent="1" vertex="1">
          <mxGeometry x="737.5" y="230" width="65" height="40" as="geometry" />
        </mxCell>
        <mxCell id="rDlZttwklfcMdlknaQjT-37" style="edgeStyle=orthogonalEdgeStyle;rounded=0;orthogonalLoop=1;jettySize=auto;html=1;exitX=1;exitY=0.5;exitDx=0;exitDy=0;entryX=1;entryY=0.5;entryDx=0;entryDy=0;" parent="1" source="rDlZttwklfcMdlknaQjT-35" target="rDlZttwklfcMdlknaQjT-31" edge="1">
          <mxGeometry relative="1" as="geometry" />
        </mxCell>
        <mxCell id="rDlZttwklfcMdlknaQjT-38" value="no" style="edgeLabel;html=1;align=center;verticalAlign=middle;resizable=0;points=[];" parent="rDlZttwklfcMdlknaQjT-37" vertex="1" connectable="0">
          <mxGeometry x="-0.0746" y="1" relative="1" as="geometry">
            <mxPoint as="offset" />
          </mxGeometry>
        </mxCell>
        <mxCell id="rDlZttwklfcMdlknaQjT-42" style="edgeStyle=orthogonalEdgeStyle;rounded=0;orthogonalLoop=1;jettySize=auto;html=1;exitX=0.5;exitY=1;exitDx=0;exitDy=0;entryX=1;entryY=0.5;entryDx=0;entryDy=0;" parent="1" source="rDlZttwklfcMdlknaQjT-35" target="rDlZttwklfcMdlknaQjT-41" edge="1">
          <mxGeometry relative="1" as="geometry">
            <Array as="points">
              <mxPoint x="770" y="640" />
              <mxPoint x="890" y="640" />
              <mxPoint x="890" y="200" />
            </Array>
          </mxGeometry>
        </mxCell>
        <mxCell id="rDlZttwklfcMdlknaQjT-43" value="yes" style="edgeLabel;html=1;align=center;verticalAlign=middle;resizable=0;points=[];" parent="rDlZttwklfcMdlknaQjT-42" vertex="1" connectable="0">
          <mxGeometry x="-0.7554" y="1" relative="1" as="geometry">
            <mxPoint as="offset" />
          </mxGeometry>
        </mxCell>
        <mxCell id="rDlZttwklfcMdlknaQjT-35" value="ni = 1" style="rhombus;whiteSpace=wrap;html=1;" parent="1" vertex="1">
          <mxGeometry x="730" y="580" width="80" height="40" as="geometry" />
        </mxCell>
        <mxCell id="rDlZttwklfcMdlknaQjT-36" value="" style="edgeStyle=orthogonalEdgeStyle;rounded=0;orthogonalLoop=1;jettySize=auto;html=1;" parent="1" source="rDlZttwklfcMdlknaQjT-31" target="rDlZttwklfcMdlknaQjT-35" edge="1">
          <mxGeometry relative="1" as="geometry" />
        </mxCell>
        <mxCell id="rDlZttwklfcMdlknaQjT-44" style="edgeStyle=orthogonalEdgeStyle;rounded=0;orthogonalLoop=1;jettySize=auto;html=1;" parent="1" edge="1">
          <mxGeometry relative="1" as="geometry">
            <mxPoint x="600" y="180" as="targetPoint" />
            <mxPoint x="600" y="180" as="sourcePoint" />
          </mxGeometry>
        </mxCell>
        <mxCell id="rDlZttwklfcMdlknaQjT-51" style="edgeStyle=orthogonalEdgeStyle;rounded=0;orthogonalLoop=1;jettySize=auto;html=1;exitX=0;exitY=0.5;exitDx=0;exitDy=0;endArrow=none;endFill=0;" parent="1" source="rDlZttwklfcMdlknaQjT-41" edge="1">
          <mxGeometry relative="1" as="geometry">
            <mxPoint x="700" y="250" as="targetPoint" />
          </mxGeometry>
        </mxCell>
        <mxCell id="rDlZttwklfcMdlknaQjT-41" value="&lt;div&gt;fib &amp;lt;- n1&lt;/div&gt;" style="ellipse;whiteSpace=wrap;html=1;" parent="1" vertex="1">
          <mxGeometry x="737.5" y="180" width="65" height="40" as="geometry" />
        </mxCell>
        <mxCell id="rDlZttwklfcMdlknaQjT-49" value="" style="edgeStyle=orthogonalEdgeStyle;rounded=0;orthogonalLoop=1;jettySize=auto;html=1;endArrow=none;endFill=0;" parent="1" source="rDlZttwklfcMdlknaQjT-19" target="rDlZttwklfcMdlknaQjT-48" edge="1">
          <mxGeometry relative="1" as="geometry">
            <mxPoint x="738" y="305" as="sourcePoint" />
            <mxPoint x="640" y="305" as="targetPoint" />
          </mxGeometry>
        </mxCell>
        <mxCell id="rDlZttwklfcMdlknaQjT-48" value="" style="shape=waypoint;sketch=0;size=6;pointerEvents=1;points=[];fillColor=none;resizable=0;rotatable=0;perimeter=centerPerimeter;snapToPoint=1;" parent="1" vertex="1">
          <mxGeometry x="690" y="295" width="20" height="20" as="geometry" />
        </mxCell>
        <mxCell id="rDlZttwklfcMdlknaQjT-50" style="edgeStyle=orthogonalEdgeStyle;rounded=0;orthogonalLoop=1;jettySize=auto;html=1;entryX=0.383;entryY=0.25;entryDx=0;entryDy=0;entryPerimeter=0;endArrow=none;endFill=0;" parent="1" source="rDlZttwklfcMdlknaQjT-52" target="rDlZttwklfcMdlknaQjT-48" edge="1">
          <mxGeometry relative="1" as="geometry" />
        </mxCell>
        <mxCell id="rDlZttwklfcMdlknaQjT-53" value="" style="edgeStyle=orthogonalEdgeStyle;rounded=0;orthogonalLoop=1;jettySize=auto;html=1;entryDx=0;entryDy=0;entryPerimeter=0;endArrow=none;endFill=0;" parent="1" source="rDlZttwklfcMdlknaQjT-26" target="rDlZttwklfcMdlknaQjT-52" edge="1">
          <mxGeometry relative="1" as="geometry">
            <mxPoint x="738" y="250" as="sourcePoint" />
            <mxPoint x="700" y="305" as="targetPoint" />
          </mxGeometry>
        </mxCell>
        <mxCell id="rDlZttwklfcMdlknaQjT-52" value="" style="shape=waypoint;sketch=0;size=6;pointerEvents=1;points=[];fillColor=none;resizable=0;rotatable=0;perimeter=centerPerimeter;snapToPoint=1;" parent="1" vertex="1">
          <mxGeometry x="690" y="240" width="20" height="20" as="geometry" />
        </mxCell>
        <mxCell id="rDlZttwklfcMdlknaQjT-54" value="" style="group" parent="1" vertex="1" connectable="0">
          <mxGeometry x="700" y="480" width="110" height="80" as="geometry" />
        </mxCell>
        <mxCell id="rDlZttwklfcMdlknaQjT-31" value="n1 &amp;lt;- n1+n2&lt;div&gt;n2 &amp;lt;- n1&lt;/div&gt;&lt;div&gt;ni &amp;lt;- ni -1&lt;/div&gt;" style="rounded=0;whiteSpace=wrap;html=1;movable=1;resizable=1;rotatable=1;deletable=1;editable=1;locked=0;connectable=1;" parent="rDlZttwklfcMdlknaQjT-54" vertex="1">
          <mxGeometry x="30" y="30" width="80" height="50" as="geometry" />
        </mxCell>
        <mxCell id="rDlZttwklfcMdlknaQjT-32" value="op" style="ellipse;whiteSpace=wrap;html=1;aspect=fixed;movable=1;resizable=1;rotatable=1;deletable=1;editable=1;locked=0;connectable=1;" parent="rDlZttwklfcMdlknaQjT-54" vertex="1">
          <mxGeometry width="30" height="30" as="geometry" />
        </mxCell>
      </root>
    </mxGraphModel>
  </diagram>
</mxfile>
